<svg xmlns:mydata="http://www.w3.org/2000/svg" mydata:contrastcolor="000000" mydata:template="Contrast" mydata:presentation="2.5" mydata:layouttype="undefined" mydata:specialfontid="undefined" mydata:id1="005" mydata:id2="940" mydata:companyname="Flex" mydata:companytagline="FlexTech" version="1.1" xmlns="http://www.w3.org/2000/svg" xmlns:xlink="http://www.w3.org/1999/xlink" style="height: 625px;" viewBox="0 0 550 470">
  <g fill="#fe5000" fill-rule="nonzero" stroke="none" stroke-width="1" stroke-linecap="butt" stroke-linejoin="miter" stroke-miterlimit="10" stroke-dasharray="" stroke-dashoffset="0" font-family="none" font-weight="none" font-size="none" text-anchor="none" style="mix-blend-mode: normal">
    <g data-paper-data="{&quot;isGlobalGroup&quot;:true,&quot;bounds&quot;:{&quot;x&quot;:70.31819901626938,&quot;y&quot;:159.75727795953358,&quot;width&quot;:409.3636019674612,&quot;height&quot;:150.48544408093287}}">
      <g data-paper-data="{&quot;textHeightFactor&quot;:0.3191113726644108,&quot;isSecondaryText&quot;:true}" id="element-id-91126">
        <path d="M147.69747,291.32257v0v0.29732v0.45949v1.81093h-0.27029v-0.40543c0,-0.36038 -0.12613,-0.67121 -0.3784,-0.93249c-0.25227,-0.26128 -0.5676,-0.39192 -0.94601,-0.39192h-5.70307v8.3519h4.56787c0.3784,-0.01802 0.68923,-0.15316 0.93249,-0.40543c0.24326,-0.25227 0.36489,-0.5676 0.36489,-0.94601v-0.3784h0.27029v4.27055h-0.27029v-0.40543c0,-0.36038 -0.12163,-0.66671 -0.36489,-0.91898c-0.24326,-0.25227 -0.54508,-0.38741 -0.90546,-0.40543h-4.59489v6.9464c0.01802,0.48652 0.19371,0.89195 0.52706,1.2163c0.33336,0.32435 0.73428,0.48652 1.20278,0.48652h0.35137v0.27029h-5.9193v-0.27029h0.35137c0.4685,0 0.86943,-0.16217 1.20278,-0.48652c0.33336,-0.32435 0.50904,-0.72978 0.52706,-1.2163v-15.13612c0,-0.43246 -0.17569,-0.79735 -0.52706,-1.09467c-0.35137,-0.29732 -0.7523,-0.44598 -1.20278,-0.44598h-0.32435l-0.02703,-0.27029h7.91944c0.36038,0 0.6532,0 0.87844,0c0.22524,0 0.50454,0 0.83789,0c0.33336,0 0.83339,0 1.5001,0z" data-paper-data="{&quot;glyphName&quot;:&quot;F&quot;,&quot;glyphIndex&quot;:0,&quot;firstGlyphOfWord&quot;:true,&quot;word&quot;:1}" fill="#fe5000" id="element-id-68854"></path>
        <path d="M180.78212,305.86406v0h0.27029l-1.56767,4.37866h-11.21695v-0.27029h0.35137c0.4685,0 0.86943,-0.16217 1.20278,-0.48652c0.33336,-0.32435 0.50904,-0.72978 0.52706,-1.2163v-14.97395c-0.01802,-0.48652 -0.19371,-0.89195 -0.52706,-1.2163c-0.33336,-0.32435 -0.73428,-0.48652 -1.20278,-0.48652h-0.35137v-0.27029h5.9193v0.27029h-0.35137c-0.4685,0 -0.86943,0.16217 -1.20278,0.48652c-0.33336,0.32435 -0.50904,0.72978 -0.52706,1.2163v16.10916h3.86512c0.95502,0 1.73435,-0.14866 2.33799,-0.44598c0.60364,-0.29732 1.09917,-0.71176 1.48658,-1.24332c0.38741,-0.53157 0.71626,-1.14872 0.98655,-1.85147z" data-paper-data="{&quot;glyphName&quot;:&quot;L&quot;,&quot;glyphIndex&quot;:1,&quot;word&quot;:1}" fill="#fe5000" id="element-id-95401"></path>
        <path d="M214.94058,305.86406v0l-1.56767,4.37866h-11.21695v-0.27029h0.35137c0.4685,0 0.86943,-0.16217 1.20278,-0.48652c0.33336,-0.32435 0.50904,-0.72978 0.52706,-1.2163v-15.13612c-0.05406,-0.45048 -0.24326,-0.81987 -0.5676,-1.10818c-0.32435,-0.28831 -0.71176,-0.43246 -1.16224,-0.43246h-0.32435l-0.02703,-0.27029h7.91944c0.36038,0 0.6532,0 0.87844,0c0.22524,0 0.50454,-0.0045 0.83789,-0.01351c0.33336,-0.00901 0.83339,-0.01351 1.5001,-0.01351v0.32435v0.45949v2.1623h-0.27029v-0.48652c0,-0.43246 -0.14415,-0.79735 -0.43246,-1.09467c-0.28831,-0.29732 -0.64869,-0.46399 -1.08115,-0.50003h-5.51387v8.3519h4.56787c0.36038,-0.01802 0.66671,-0.15316 0.91898,-0.40543c0.25227,-0.25227 0.3784,-0.5676 0.3784,-0.94601v-0.3784h0.27029v4.27055h-0.27029v-0.40543c0,-0.36038 -0.12163,-0.66671 -0.36489,-0.91898c-0.24326,-0.25227 -0.54508,-0.38741 -0.90546,-0.40543h-4.59489v8.08161h3.86512c0.95502,0 1.73435,-0.14866 2.33799,-0.44598c0.60364,-0.29732 1.09917,-0.71176 1.48658,-1.24332c0.38741,-0.53157 0.71626,-1.14872 0.98655,-1.85147z" data-paper-data="{&quot;glyphName&quot;:&quot;E&quot;,&quot;glyphIndex&quot;:2,&quot;word&quot;:1}" fill="#fe5000" id="element-id-96126"></path>
        <path d="M255.96209,309.97243v0h0.3784v0.27029h-6.59502v-0.27029h0.32435c0.3784,0 0.68473,-0.17569 0.91898,-0.52706c0.23425,-0.35137 0.25227,-0.72527 0.05406,-1.12169l-4.16243,-6.568l-4.16243,6.54097c-0.21623,0.41444 -0.20272,0.79735 0.04054,1.14872c0.24326,0.35137 0.54508,0.52706 0.90546,0.52706h0.35137v0.27029h-6.13554v-0.27029h0.3784c0.55859,0 1.08115,-0.15767 1.56767,-0.473c0.48652,-0.31534 0.88294,-0.68923 1.18927,-1.12169l5.1625,-7.7032l-4.73004,-7.48697c-0.30633,-0.43246 -0.69824,-0.80636 -1.17575,-1.12169c-0.47751,-0.31534 -0.99556,-0.473 -1.55416,-0.473h-0.3784v-0.27029h6.54097v0.27029h-0.32435c-0.36038,0 -0.6577,0.17569 -0.89195,0.52706c-0.23425,0.35137 -0.26128,0.72527 -0.08109,1.12169l3.72997,5.83822l3.67592,-5.81119c0.21623,-0.39642 0.21173,-0.77483 -0.01351,-1.13521c-0.22524,-0.36038 -0.52706,-0.54058 -0.90546,-0.54058h-0.32435v-0.27029h6.08148v0.27029h-0.3784c-0.55859,0 -1.07665,0.15767 -1.55416,0.473c-0.47751,0.31534 -0.86943,0.68923 -1.17575,1.12169l-4.73004,6.97343l5.24359,8.24378c0.30633,0.43246 0.69824,0.80185 1.17575,1.10818c0.47751,0.30633 0.99556,0.45949 1.55416,0.45949z" data-paper-data="{&quot;glyphName&quot;:&quot;X&quot;,&quot;glyphIndex&quot;:3,&quot;word&quot;:1}" fill="#fe5000" id="element-id-96191"></path>
        <path d="M283.44978,291.29554v0h9.13573c0.3784,0 0.68022,0 0.90546,0c0.22524,0 0.50003,0 0.82438,0c0.32435,0 0.81086,-0.00901 1.45955,-0.02703l0.08109,2.91911h-0.27029v-0.45949c0,-0.45048 -0.14866,-0.82438 -0.44598,-1.12169c-0.29732,-0.29732 -0.66221,-0.46399 -1.09467,-0.50003h-5.13547v16.19024c0.01802,0.4685 0.19371,0.86492 0.52706,1.18927c0.33336,0.32435 0.73428,0.48652 1.20278,0.48652h0.35137v0.27029h-5.9193v-0.27029h0.35137c0.4685,0 0.86492,-0.15767 1.18927,-0.473c0.32435,-0.31534 0.50454,-0.70725 0.54058,-1.17575v-16.21727h-5.13547c-0.43246,0.03604 -0.79735,0.20272 -1.09467,0.50003c-0.29732,0.29732 -0.44598,0.67121 -0.44598,1.12169v0.45949h-0.27029v-2.91911c0.79284,0.01802 1.36495,0.02703 1.71633,0.02703c0.35137,0 0.58112,0 0.68923,0c0.0901,0 0.16217,0 0.21623,0c0.05406,0 0.12613,0 0.21623,0c0.0901,0 0.22524,0 0.40543,0z" data-paper-data="{&quot;glyphName&quot;:&quot;T&quot;,&quot;glyphIndex&quot;:4,&quot;word&quot;:1}" fill="#fe5000" id="element-id-81084"></path>
        <path d="M330.67076,305.86406v0l-1.56767,4.37866h-11.21695v-0.27029h0.35137c0.4685,0 0.86943,-0.16217 1.20278,-0.48652c0.33336,-0.32435 0.50904,-0.72978 0.52706,-1.2163v-15.13612c-0.05406,-0.45048 -0.24326,-0.81987 -0.5676,-1.10818c-0.32435,-0.28831 -0.71176,-0.43246 -1.16224,-0.43246h-0.32435l-0.02703,-0.27029h7.91944c0.36038,0 0.6532,0 0.87844,0c0.22524,0 0.50454,-0.0045 0.83789,-0.01351c0.33336,-0.00901 0.83339,-0.01351 1.5001,-0.01351v0.32435v0.45949v2.1623h-0.27029v-0.48652c0,-0.43246 -0.14415,-0.79735 -0.43246,-1.09467c-0.28831,-0.29732 -0.64869,-0.46399 -1.08115,-0.50003h-5.51387v8.3519h4.56787c0.36038,-0.01802 0.66671,-0.15316 0.91898,-0.40543c0.25227,-0.25227 0.3784,-0.5676 0.3784,-0.94601v-0.3784h0.27029v4.27055h-0.27029v-0.40543c0,-0.36038 -0.12163,-0.66671 -0.36489,-0.91898c-0.24326,-0.25227 -0.54508,-0.38741 -0.90546,-0.40543h-4.59489v8.08161h3.86512c0.95502,0 1.73435,-0.14866 2.33799,-0.44598c0.60364,-0.29732 1.09917,-0.71176 1.48658,-1.24332c0.38741,-0.53157 0.71626,-1.14872 0.98655,-1.85147z" data-paper-data="{&quot;glyphName&quot;:&quot;E&quot;,&quot;glyphIndex&quot;:5,&quot;word&quot;:1}" fill="#fe5000" id="element-id-9079"></path>
        <path d="M370.06593,302.02597v0h0.21623l-0.32435,4.21649c-0.68473,1.17125 -1.63074,2.13077 -2.83802,2.87857c-1.20729,0.7478 -2.7209,1.12169 -4.54084,1.12169c-2.81099,-0.05406 -5.08141,-0.95952 -6.81125,-2.71639c-1.72984,-1.75687 -2.59476,-4.12189 -2.59476,-7.09506c0,-2.90109 0.86943,-5.24809 2.60828,-7.041c1.73885,-1.79291 4.04981,-2.68936 6.93288,-2.68936c1.29738,0 2.46863,0.17118 3.51374,0.51355c1.04511,0.34236 1.95508,0.77483 2.72991,1.29738l-0.10812,3.89215h-0.21623c-0.79284,-3.20742 -2.76595,-4.83815 -5.9193,-4.89221c-2.30646,0 -4.10387,0.81987 -5.39224,2.45962c-1.28837,1.63975 -1.93256,3.79304 -1.93256,6.45988c0,2.70288 0.63968,4.85617 1.91904,6.45988c1.27936,1.60371 3.03623,2.45061 5.27061,2.54071c1.91003,0.03604 3.54978,-0.50904 4.91924,-1.63524c1.36946,-1.1262 2.22537,-3.04975 2.56773,-5.77065z" data-paper-data="{&quot;glyphName&quot;:&quot;C&quot;,&quot;glyphIndex&quot;:6,&quot;word&quot;:1}" fill="#fe5000" id="element-id-71414"></path>
        <path d="M413.43839,310.24272v0h-5.9193v-0.27029h0.35137c0.4685,0 0.86943,-0.16217 1.20278,-0.48652c0.33336,-0.32435 0.50904,-0.72077 0.52706,-1.18927v-7.00046h-11.05477v6.97343c0.01802,0.48652 0.19371,0.89195 0.52706,1.2163c0.33336,0.32435 0.73428,0.48652 1.20278,0.48652h0.35137v0.27029h-5.9193v-0.27029h0.35137c0.4685,0 0.86943,-0.16217 1.20278,-0.48652c0.33336,-0.32435 0.50904,-0.72978 0.52706,-1.2163v-15.00098c-0.01802,-0.4685 -0.19371,-0.86492 -0.52706,-1.18927c-0.33336,-0.32435 -0.73428,-0.48652 -1.20278,-0.48652h-0.35137v-0.27029h5.9193v0.27029h-0.35137c-0.4685,0 -0.86943,0.16217 -1.20278,0.48652c-0.33336,0.32435 -0.50904,0.72077 -0.52706,1.18927v7.21669h11.05477v-7.21669c-0.01802,-0.48652 -0.19371,-0.88745 -0.52706,-1.20278c-0.33336,-0.31534 -0.73428,-0.473 -1.20278,-0.473h-0.35137v-0.27029h5.9193v0.27029h-0.35137c-0.4685,0 -0.86943,0.16217 -1.20278,0.48652c-0.33336,0.32435 -0.50904,0.72978 -0.52706,1.2163v14.97395c0.01802,0.48652 0.19371,0.89195 0.52706,1.2163c0.33336,0.32435 0.73428,0.48652 1.20278,0.48652h0.35137z" data-paper-data="{&quot;glyphName&quot;:&quot;H&quot;,&quot;glyphIndex&quot;:7,&quot;lastGlyphOfWord&quot;:true,&quot;word&quot;:1}" fill="#fe5000" id="element-id-67995"></path>
        <path d="M70.3182,250.17574v-1.17125h409.3636v1.17125z" data-paper-data="{&quot;isContainerTopLineAboveSecondaryText&quot;:true}" fill="#fe5000" id="element-id-99529"></path>
      </g>
      <g data-paper-data="{&quot;isPrimaryText&quot;:true}" id="element-id-72603">
        <path d="M131.54978,203.53838h-42.43875v-13.52671h42.43875zM137.53871,173.18073h-53.79706v60.61204h-13.42345v-67.27214c0,-0.92932 0.1721,-1.807 0.51629,-2.63306c0.34419,-0.82606 0.81745,-1.54886 1.41979,-2.1684c0.60233,-0.61954 1.31653,-1.10141 2.14259,-1.4456c0.82606,-0.34419 1.72096,-0.51629 2.68469,-0.51629h60.45715z" data-paper-data="{&quot;glyphName&quot;:&quot;F&quot;,&quot;glyphIndex&quot;:0,&quot;firstGlyphOfWord&quot;:true,&quot;word&quot;:1}" fill="#fe5000" id="element-id-1308"></path>
        <path d="M249.418,233.79277h-61.23158c-0.96373,0 -1.85863,-0.1721 -2.68469,-0.51629c-0.82606,-0.34419 -1.54025,-0.81745 -2.14259,-1.41979c-0.60233,-0.60233 -1.0756,-1.31653 -1.41979,-2.14259c-0.34419,-0.82606 -0.51629,-1.72096 -0.51629,-2.68469v-67.27214h13.42345v60.61204h54.57149z" data-paper-data="{&quot;glyphName&quot;:&quot;L&quot;,&quot;glyphIndex&quot;:1,&quot;word&quot;:1}" fill="#fe5000" id="element-id-88625"></path>
        <path d="M352.88183,203.53838h-42.38713v-13.52671h42.38713zM358.92238,233.79277h-48.42768c-1.85863,0 -3.88936,-0.32698 -6.09218,-0.98094c-2.20282,-0.65396 -4.24215,-1.72956 -6.118,-3.22679c-1.87584,-1.49723 -3.44191,-3.44191 -4.69821,-5.83404c-1.2563,-2.39213 -1.88445,-5.32636 -1.88445,-8.80269v-48.42768c0,-0.92932 0.1721,-1.807 0.51629,-2.63306c0.34419,-0.82606 0.81745,-1.54886 1.41979,-2.1684c0.60233,-0.61954 1.31653,-1.10141 2.14259,-1.4456c0.82606,-0.34419 1.72096,-0.51629 2.68469,-0.51629h60.45715v13.42345h-53.79706v41.76758c0,1.75537 0.46466,3.09772 1.39397,4.02704c0.92932,0.92932 2.28887,1.39397 4.07866,1.39397h48.32442z" data-paper-data="{&quot;glyphName&quot;:&quot;E&quot;,&quot;glyphIndex&quot;:2,&quot;word&quot;:1}" fill="#fe5000" id="element-id-96544"></path>
        <path d="M438.74028,186.19115l22.61335,-26.43387h18.32817l-31.85488,37.121l31.64837,36.91449h-18.22492l-22.51009,-26.22736l-22.40684,26.22736h-18.27654l31.59674,-36.91449l-31.69999,-37.121h18.17329z" data-paper-data="{&quot;glyphName&quot;:&quot;X&quot;,&quot;glyphIndex&quot;:3,&quot;lastGlyphOfWord&quot;:true,&quot;word&quot;:1}" fill="#fe5000" id="element-id-47697"></path>
      </g>
    </g>
  </g>
  <rect data-element-id="element-id-72603" stroke-width="2" fill="transparent" class="invisible-element-box grouping-element" x="70" y="160" width="409" height="74" data-element-name="isPrimaryText"></rect>
  <rect data-element-id="element-id-91126" stroke-width="2" fill="transparent" class="invisible-element-box grouping-element" x="70" y="249" width="409" height="61" data-element-name="isSecondaryText"></rect>
  <rect data-element-id="element-id-47697" stroke-width="2" fill="transparent" class="invisible-element-box individual-element" x="398" y="160" width="82" height="74"></rect>
  <rect data-element-id="element-id-88625" stroke-width="2" fill="transparent" class="invisible-element-box individual-element" x="181" y="160" width="68" height="74"></rect>
  <rect data-element-id="element-id-1308" stroke-width="2" fill="transparent" class="invisible-element-box individual-element" x="70" y="160" width="67" height="74"></rect>
  <rect data-element-id="element-id-96544" stroke-width="2" fill="transparent" class="invisible-element-box individual-element" x="292" y="160" width="67" height="74"></rect>
  <rect data-element-id="element-id-99529" stroke-width="2" fill="transparent" class="invisible-element-box individual-element" x="70" y="249" width="409" height="1"></rect>
  <rect data-element-id="element-id-67995" stroke-width="2" fill="transparent" class="invisible-element-box individual-element" x="395" y="291" width="19" height="19"></rect>
  <rect data-element-id="element-id-96191" stroke-width="2" fill="transparent" class="invisible-element-box individual-element" x="238" y="291" width="18" height="19"></rect>
  <rect data-element-id="element-id-71414" stroke-width="2" fill="transparent" class="invisible-element-box individual-element" x="353" y="291" width="17" height="20"></rect>
  <rect data-element-id="element-id-81084" stroke-width="2" fill="transparent" class="invisible-element-box individual-element" x="280" y="291" width="16" height="19"></rect>
  <rect data-element-id="element-id-95401" stroke-width="2" fill="transparent" class="invisible-element-box individual-element" x="168" y="291" width="13" height="19"></rect>
  <rect data-element-id="element-id-96126" stroke-width="2" fill="transparent" class="invisible-element-box individual-element" x="202" y="291" width="13" height="19"></rect>
  <rect data-element-id="element-id-9079" stroke-width="2" fill="transparent" class="invisible-element-box individual-element" x="318" y="291" width="13" height="19"></rect>
  <rect data-element-id="element-id-68854" stroke-width="2" fill="transparent" class="invisible-element-box individual-element" x="137" y="291" width="11" height="19"></rect>
</svg>