<svg xmlns:mydata="http://www.w3.org/2000/svg" xmlns="http://www.w3.org/2000/svg" xmlns:xlink="http://www.w3.org/1999/xlink" mydata:contrastcolor="000000" mydata:template="Contrast" mydata:presentation="2.5" mydata:layouttype="undefined" mydata:specialfontid="undefined" mydata:id1="005" mydata:id2="940" mydata:companyname="Flex" mydata:companytagline="FlexTech" version="1.1" style="height: 625px;" viewBox="0 0 550 470">
  <g fill="#fe5000" fill-rule="nonzero" stroke="none" stroke-width="1" stroke-linecap="butt" stroke-linejoin="miter" stroke-miterlimit="10" stroke-dasharray="" stroke-dashoffset="0" font-family="none" font-weight="none" font-size="none" text-anchor="none" style="mix-blend-mode: normal">
    <g data-paper-data="{&quot;isGlobalGroup&quot;:true,&quot;bounds&quot;:{&quot;x&quot;:70.31819901626938,&quot;y&quot;:159.75727795953358,&quot;width&quot;:409.3636019674612,&quot;height&quot;:150.48544408093287}}">
      
      <g data-paper-data="{&quot;isPrimaryText&quot;:true}" id="element-id-72603">
        <path d="M131.54978,203.53838h-42.43875v-13.52671h42.43875zM137.53871,173.18073h-53.79706v60.61204h-13.42345v-67.27214c0,-0.92932 0.1721,-1.807 0.51629,-2.63306c0.34419,-0.82606 0.81745,-1.54886 1.41979,-2.1684c0.60233,-0.61954 1.31653,-1.10141 2.14259,-1.4456c0.82606,-0.34419 1.72096,-0.51629 2.68469,-0.51629h60.45715z" data-paper-data="{&quot;glyphName&quot;:&quot;F&quot;,&quot;glyphIndex&quot;:0,&quot;firstGlyphOfWord&quot;:true,&quot;word&quot;:1}" fill="#fe5000" id="element-id-1308"/>
        <path d="M249.418,233.79277h-61.23158c-0.96373,0 -1.85863,-0.1721 -2.68469,-0.51629c-0.82606,-0.34419 -1.54025,-0.81745 -2.14259,-1.41979c-0.60233,-0.60233 -1.0756,-1.31653 -1.41979,-2.14259c-0.34419,-0.82606 -0.51629,-1.72096 -0.51629,-2.68469v-67.27214h13.42345v60.61204h54.57149z" data-paper-data="{&quot;glyphName&quot;:&quot;L&quot;,&quot;glyphIndex&quot;:1,&quot;word&quot;:1}" fill="#fe5000" id="element-id-88625"/>
        <path d="M352.88183,203.53838h-42.38713v-13.52671h42.38713zM358.92238,233.79277h-48.42768c-1.85863,0 -3.88936,-0.32698 -6.09218,-0.98094c-2.20282,-0.65396 -4.24215,-1.72956 -6.118,-3.22679c-1.87584,-1.49723 -3.44191,-3.44191 -4.69821,-5.83404c-1.2563,-2.39213 -1.88445,-5.32636 -1.88445,-8.80269v-48.42768c0,-0.92932 0.1721,-1.807 0.51629,-2.63306c0.34419,-0.82606 0.81745,-1.54886 1.41979,-2.1684c0.60233,-0.61954 1.31653,-1.10141 2.14259,-1.4456c0.82606,-0.34419 1.72096,-0.51629 2.68469,-0.51629h60.45715v13.42345h-53.79706v41.76758c0,1.75537 0.46466,3.09772 1.39397,4.02704c0.92932,0.92932 2.28887,1.39397 4.07866,1.39397h48.32442z" data-paper-data="{&quot;glyphName&quot;:&quot;E&quot;,&quot;glyphIndex&quot;:2,&quot;word&quot;:1}" fill="#fe5000" id="element-id-96544"/>
        <path d="M438.74028,186.19115l22.61335,-26.43387h18.32817l-31.85488,37.121l31.64837,36.91449h-18.22492l-22.51009,-26.22736l-22.40684,26.22736h-18.27654l31.59674,-36.91449l-31.69999,-37.121h18.17329z" data-paper-data="{&quot;glyphName&quot;:&quot;X&quot;,&quot;glyphIndex&quot;:3,&quot;lastGlyphOfWord&quot;:true,&quot;word&quot;:1}" fill="#fe5000" id="element-id-47697"/>
      </g>
    </g>
  </g>
  <rect data-element-id="element-id-72603" stroke-width="2" fill="transparent" class="invisible-element-box grouping-element" x="70" y="160" width="409" height="74" data-element-name="isPrimaryText"/>
  
  <rect data-element-id="element-id-47697" stroke-width="2" fill="transparent" class="invisible-element-box individual-element" x="398" y="160" width="82" height="74"/>
  <rect data-element-id="element-id-88625" stroke-width="2" fill="transparent" class="invisible-element-box individual-element" x="181" y="160" width="68" height="74"/>
  <rect data-element-id="element-id-1308" stroke-width="2" fill="transparent" class="invisible-element-box individual-element" x="70" y="160" width="67" height="74"/>
  <rect data-element-id="element-id-96544" stroke-width="2" fill="transparent" class="invisible-element-box individual-element" x="292" y="160" width="67" height="74"/>
  
  <rect data-element-id="element-id-67995" stroke-width="2" fill="transparent" class="invisible-element-box individual-element" x="395" y="291" width="19" height="19"/>
  <rect data-element-id="element-id-96191" stroke-width="2" fill="transparent" class="invisible-element-box individual-element" x="238" y="291" width="18" height="19"/>
  <rect data-element-id="element-id-71414" stroke-width="2" fill="transparent" class="invisible-element-box individual-element" x="353" y="291" width="17" height="20"/>
  
  <rect data-element-id="element-id-95401" stroke-width="2" fill="transparent" class="invisible-element-box individual-element" x="168" y="291" width="13" height="19"/>
  <rect data-element-id="element-id-96126" stroke-width="2" fill="transparent" class="invisible-element-box individual-element" x="202" y="291" width="13" height="19"/>
  <rect data-element-id="element-id-9079" stroke-width="2" fill="transparent" class="invisible-element-box individual-element" x="318" y="291" width="13" height="19"/>
  <rect data-element-id="element-id-68854" stroke-width="2" fill="transparent" class="invisible-element-box individual-element" x="137" y="291" width="11" height="19"/>
</svg>